<svg xmlns="http://www.w3.org/2000/svg" viewBox="0 0 60 60" class="FavouritesItemStatusButton_icon__maJuJ"><defs><clipPath id="FavouritesDynamic_svg__c"><use href="#FavouritesDynamic_svg__a"></use></clipPath><filter id="FavouritesDynamic_svg__b" width="28.002" height="24.746" x="-2" y="0.252" color-interpolation-filters="sRGB" filterUnits="userSpaceOnUse"><feFlood flood-opacity="0" result="BackgroundImageFix"></feFlood><feColorMatrix in="SourceAlpha" result="hardAlpha" values="0 0 0 0 0 0 0 0 0 0 0 0 0 0 0 0 0 0 127 0"></feColorMatrix><feOffset dy="1"></feOffset><feGaussianBlur stdDeviation="2"></feGaussianBlur><feComposite in2="hardAlpha" operator="out"></feComposite><feColorMatrix values="0 0 0 0 0 0 0 0 0 0 0 0 0 0 0 0 0 0 0.25 0"></feColorMatrix><feBlend in2="BackgroundImageFix" result="effect1_dropShadow_12565_118238"></feBlend><feBlend in="SourceGraphic" in2="effect1_dropShadow_12565_118238" result="shape"></feBlend></filter><path id="FavouritesDynamic_svg__a" d="M2.421 13c.52 1.264 1.527 2.293 3.019 3.82a27.694 27.694 0 0 0 1.722 1.61c1.987 1.711 2.981 2.567 4.838 2.567 1.857 0 2.85-.856 4.838-2.568a27.622 27.622 0 0 0 1.722-1.61c1.492-1.526 2.498-2.555 3.019-3.819a5.62 5.62 0 0 0 .401-1.81c.027-.408.031-.82 0-1.228-.242-3.198-2.705-5.71-5.707-5.71a5.346 5.346 0 0 0-2.774.778 5.901 5.901 0 0 0-1.508 1.315 5.859 5.859 0 0 0-1.513-1.309 5.342 5.342 0 0 0-2.752-.765C4.718 4.27 2.252 6.793 2.018 10a6.867 6.867 0 0 0-.018.5c0 .848.089 1.694.421 2.5Zm1.637-1.525c.18 1.176.841 1.93 2.812 3.946.51.522 1.05 1.02 1.597 1.493 2.09 1.8 2.534 2.083 3.533 2.083.999 0 1.443-.283 3.532-2.083a25.63 25.63 0 0 0 1.598-1.493c1.95-1.995 2.619-2.754 2.806-3.91.026-.342.064-.686.064-1.03 0-2.497-1.823-4.229-3.727-4.229-1.044 0-2.025.492-2.733 1.358l-1.543 1.888-1.55-1.882c-.706-.858-1.682-1.345-2.721-1.345C5.823 6.27 4 8.002 4 10.5c0 .325.035.65.058.975Z"></path></defs><g data-id="heartContainer" filter="url(#FavouritesDynamic_svg__b)"><use clip-path="url(#FavouritesDynamic_svg__c)" data-id="heart" href="#FavouritesDynamic_svg__a"></use></g><circle cx="30" cy="30" r="1.5" fill="#FF0032" data-id="circle"></circle><g data-id="grp7" transform="translate(7 6)"><circle cx="2" cy="6" r="2" fill="#9CD8C3" data-id="oval1"></circle><circle cx="5" cy="2" r="2" fill="#8CE8C3" data-id="oval2"></circle></g><g data-id="grp6" transform="translate(0 28)"><circle cx="2" cy="7" r="2" fill="#CC8EF5" data-id="oval1"></circle><circle cx="3" cy="2" r="2" fill="#91D2FA" data-id="oval2"></circle></g><g data-id="grp3" transform="translate(52 28)"><circle cx="2" cy="7" r="2" fill="#9CD8C3" data-id="oval2"></circle><circle cx="4" cy="2" r="2" fill="#8CE8C3" data-id="oval1"></circle></g><g fill="#CC8EF5" data-id="grp2" transform="translate(44 6)"><circle cx="5" cy="6" r="2" data-id="oval2"></circle><circle cx="2" cy="2" r="2" data-id="oval1"></circle></g><g fill="#91D2FA" data-id="grp5" transform="translate(14 50)"><circle cx="6" cy="5" r="2" data-id="oval1"></circle><circle cx="2" cy="2" r="2" data-id="oval2"></circle></g><g fill="#F48EA7" data-id="grp4" transform="translate(35 50)"><circle cx="6" cy="5" r="2" data-id="oval1"></circle><circle cx="2" cy="2" r="2" data-id="oval2"></circle></g><g fill="#9FC7FA" data-id="grp1" transform="translate(24)"><circle cx="2.5" cy="3" r="2" data-id="oval1"></circle><circle cx="7.5" cy="2" r="2" data-id="oval2"></circle></g></svg>