<svg xmlns="http://www.w3.org/2000/svg" viewBox="0 0 25 24" class="AnnouncementDetailsSharePanel_shareIcon__SpiK_"><path d="M16.01 8a1 1 0 0 0 .858-1.514l-.164-.274C15.019 3.404 14.176 2 12.93 2c-1.246 0-2.088 1.404-3.773 4.212l-.164.274a1 1 0 0 0 1.715 1.029l.164-.274c.42-.699.763-1.269 1.057-1.734V14a1 1 0 1 0 2 0V5.504c.295.466.639 1.037 1.059 1.737l.164.274A1 1 0 0 0 16.01 8Z"></path><path fill="currentColor" d="M7.947 10.117c.447-.044.941-.082 1.484-.117a1 1 0 1 1 0 2v.002c-.47.031-.9.067-1.29.105-.407.04-.54.057-.653.085a1.602 1.602 0 0 0-.4.17l-.002.001c-.012.008-.046.032-.104.079a4.914 4.914 0 0 0-.603.581c-.05.056-.074.09-.083.1l-.002.003c-.152.258-.182.35-.19.376-.013.044-.024.09-.066.4-.066.48-.107 1.002-.107 1.552s.041 1.07.106 1.546c.042.306.052.349.065.389.007.024.037.116.19.375l.002.003c.008.01.033.043.082.1.077.088.178.194.291.303.113.108.223.205.314.279.058.047.092.07.103.079l.002.001c.228.123.332.154.398.17.112.027.242.044.646.083 1.213.12 2.815.218 4.8.218 1.983 0 3.583-.098 4.795-.217.406-.04.537-.056.65-.084.068-.016.172-.047.4-.17l.002-.001c.011-.008.045-.032.103-.08a4.97 4.97 0 0 0 .604-.58c.049-.057.074-.09.082-.101l.002-.003c.153-.258.183-.351.19-.376.014-.042.024-.086.066-.395.065-.477.107-.998.107-1.548 0-.549-.042-1.07-.107-1.547-.042-.309-.052-.353-.065-.395-.008-.025-.038-.118-.19-.376l-.003-.003c-.008-.01-.033-.044-.082-.1a4.92 4.92 0 0 0-.29-.303 4.942 4.942 0 0 0-.314-.279 1.859 1.859 0 0 0-.103-.079l-.003-.002a1.606 1.606 0 0 0-.399-.17c-.113-.027-.244-.043-.65-.083a41.36 41.36 0 0 0-1.294-.106V12a1 1 0 1 1 0-2c.544.035 1.04.073 1.489.117.745.073 1.118.11 1.832.5.43.234 1.274 1.047 1.524 1.467.415.7.454.982.53 1.545.075.556.125 1.167.125 1.816 0 .65-.05 1.261-.125 1.817-.076.563-.115.845-.53 1.544-.25.42-1.094 1.234-1.524 1.468-.714.39-1.087.426-1.832.5a51.29 51.29 0 0 1-4.99.226c-2.051 0-3.719-.102-4.996-.227-.741-.073-1.112-.11-1.826-.5-.428-.233-1.273-1.047-1.523-1.466-.416-.7-.454-.979-.53-1.537a13.498 13.498 0 0 1-.124-1.816c0-.65.05-1.263.125-1.82.077-.567.115-.85.531-1.55.25-.42 1.094-1.233 1.524-1.468.714-.39 1.088-.426 1.836-.5Z"></path></svg>