<svg width="24" height="24" viewBox="0 0 24 24" fill="none" xmlns="http://www.w3.org/2000/svg">
<path d="M13.875 18.875L11.95 16H8.5C7.95 16 7.47933 15.8043 7.088 15.413C6.69667 15.0217 6.50067 14.5507 6.5 14V11C6.5 10.7167 6.596 10.4793 6.788 10.288C6.98 10.0967 7.21733 10.0007 7.5 10C7.78267 9.99934 8.02033 10.0953 8.213 10.288C8.40567 10.4807 8.50133 10.718 8.5 11V14H11.975C12.3083 14 12.625 14.0793 12.925 14.238C13.225 14.3967 13.4667 14.6173 13.65 14.9L15.55 17.775C15.7 18.0083 15.746 18.2583 15.688 18.525C15.63 18.7917 15.484 19 15.25 19.15C15.016 19.3 14.766 19.35 14.5 19.3C14.234 19.25 14.0257 19.1083 13.875 18.875Z" fill="black"/>
<path fill-rule="evenodd" clip-rule="evenodd" d="M5.28025 13.2519C5.62569 13.6828 5.55639 14.3122 5.12547 14.6576C4.43758 15.209 4 16.0531 4 17C4 18.6569 5.34315 20 7 20C8.39651 20 9.57246 19.0449 9.90555 17.7508C10.0432 17.2159 10.5884 16.8939 11.1232 17.0316C11.6581 17.1693 11.9801 17.7144 11.8424 18.2493C11.2874 20.4056 9.33117 22 7 22C4.23858 22 2 19.7615 2 17C2 15.4206 2.73349 14.0118 3.87453 13.0971C4.30545 12.7517 4.93481 12.821 5.28025 13.2519Z" fill="black"/>
<rect x="5.5" y="5" width="4" height="4" rx="2" fill="black"/>
<path fill-rule="evenodd" clip-rule="evenodd" d="M21.669 2.25671C22.0795 2.62617 22.1128 3.25846 21.7433 3.66897L17.2433 8.66897C16.889 9.06273 16.289 9.1118 15.8753 8.78088L13.3753 6.78088C12.9441 6.43587 12.8742 5.80658 13.2192 5.37531C13.5642 4.94405 14.1935 4.87413 14.6247 5.21914L16.3879 6.62971L20.2567 2.33104C20.6262 1.92053 21.2585 1.88726 21.669 2.25671Z" fill="black"/>
</svg>
